<svg width="192" height="192" viewBox="0 0 192 192" fill="none" xmlns="http://www.w3.org/2000/svg">
<path d="M96 0C149.019 0 192 42.9807 192 96C192 149.019 149.019 192 96 192C42.9807 192 0 149.019 0 96C0 42.9807 42.9807 0 96 0ZM124.572 44.8994C119.332 43.244 113.699 43.3055 108.496 45.0742C103.296 46.8422 98.7948 50.2239 95.6494 54.7266L47.3125 123.714C47.2239 123.829 47.14 123.949 47.0615 124.072L39.9053 134.287C38.3209 136.549 38.8696 139.666 41.1309 141.251C43.3923 142.835 46.5101 142.287 48.0947 140.025L53.8887 131.756H80.6006V142.356C80.6008 145.118 82.8393 147.356 85.6006 147.356C88.3617 147.356 90.6003 145.118 90.6006 142.356V131.756H96L97.1572 131.742C98.5807 131.707 99.9966 131.604 101.4 131.44V142.356L101.407 142.613C101.541 145.255 103.725 147.356 106.4 147.356C109.075 147.356 111.26 145.255 111.394 142.613L111.4 142.356V129.137C117.943 126.845 123.956 123.102 128.951 118.107C137.417 109.641 142.29 98.253 142.586 86.3135L142.601 85.1562V78.6602L149.213 77.0078L149.42 76.9512C151.535 76.3257 153.001 74.3787 153.001 72.1562C153.001 69.934 151.535 67.9877 149.42 67.3623L149.213 67.3057L142.299 65.5771C141.673 61.5108 140.081 57.6324 137.631 54.2793C134.388 49.842 129.813 46.5551 124.572 44.8994ZM90.5957 79.3652C92.7595 82.1182 94.363 85.2914 95.2881 88.707C96.6956 93.9041 96.468 99.4097 94.6357 104.473C92.8033 109.535 89.4544 113.911 85.0469 117.004C80.6392 120.096 75.3852 121.755 70.001 121.756H60.8955L90.5957 79.3652ZM111.715 54.542C114.901 53.4589 118.351 53.4218 121.56 54.4355C124.769 55.4495 127.571 57.4616 129.557 60.1787C131.418 62.7263 132.472 65.7695 132.589 68.9131L132.6 69.542C132.6 69.5719 132.6 69.602 132.601 69.6318V85.1562C132.601 94.863 128.744 104.172 121.88 111.036C115.231 117.685 106.286 121.512 96.9092 121.745L96 121.756H94.9775C99.0126 117.909 102.125 113.164 104.039 107.876C106.571 100.88 106.885 93.2736 104.94 86.0928C103.399 80.4031 100.498 75.1997 96.5166 70.915L103.839 60.4648L103.844 60.458C105.77 57.6983 108.528 55.6253 111.715 54.542ZM116.801 64.5566C114.039 64.5566 111.801 66.7953 111.801 69.5566C111.801 72.3178 114.04 74.5566 116.801 74.5566H116.853L117.11 74.5498C119.752 74.4156 121.852 72.2313 121.853 69.5566C121.852 66.8818 119.752 64.6977 117.11 64.5635L116.853 64.5566H116.801Z" fill="url(#paint0_linear_323_110)"/>
<defs>
<linearGradient id="paint0_linear_323_110" x1="0" y1="0" x2="192" y2="192" gradientUnits="userSpaceOnUse">
<stop stop-color="#EE0979"/>
<stop offset="1" stop-color="#FF6A00"/>
</linearGradient>
</defs>
</svg>
