<svg width="192" height="192" viewBox="0 0 192 192" fill="none" xmlns="http://www.w3.org/2000/svg">
<path fill-rule="evenodd" clip-rule="evenodd" d="M56 0C25.0723 0 0 25.072 0 56V136C0 166.928 25.0723 192 56 192H136C166.928 192 192 166.928 192 136V56C192 25.072 166.928 0 136 0H56ZM108.631 45.0781C113.875 43.2954 119.551 43.2339 124.833 44.9023C130.114 46.571 134.725 49.8826 137.992 54.3542C140.468 57.7422 142.075 61.6621 142.703 65.7717L149.713 67.5242C151.939 68.0808 153.5 70.0806 153.5 72.375C153.5 74.6692 151.939 76.6692 149.713 77.2256L143 78.9038V85.5C143 97.9653 138.048 109.92 129.234 118.734C124.188 123.781 118.112 127.561 111.5 129.871V143.25C111.5 146.011 109.261 148.25 106.5 148.25C103.739 148.25 101.5 146.011 101.5 143.25V132.177C99.6836 132.391 97.8472 132.5 96 132.5H90.5V143.25C90.5 146.011 88.2612 148.25 85.5 148.25C82.7388 148.25 80.5 146.011 80.5 143.25V132.5H53.4585L47.5947 140.869C46.0103 143.131 42.8926 143.679 40.6309 142.095C38.3691 140.51 37.8203 137.393 39.4053 135.131L46.6157 124.839C46.6699 124.753 46.7266 124.669 46.7856 124.586C46.8223 124.536 46.8599 124.485 46.8984 124.436L95.6797 54.8132L95.6826 54.8093C98.8525 50.2695 103.389 46.8604 108.631 45.0781ZM96 122.5H94.8481C98.959 118.606 102.126 113.792 104.07 108.422C106.623 101.368 106.94 93.699 104.979 86.4583C103.422 80.709 100.488 75.4517 96.4604 71.126L103.88 60.5369C105.831 57.7419 108.623 55.6431 111.85 54.5461C115.077 53.449 118.57 53.4111 121.82 54.438C125.07 55.4646 127.907 57.5024 129.918 60.2544C131.914 62.9849 132.992 66.2766 133 69.657C132.999 69.7212 132.999 69.7852 133 69.8491V74.9006C132.999 74.9441 132.999 74.9875 132.999 75.031L133 75.0916V85.5C133 95.313 129.102 104.724 122.163 111.663C115.224 118.602 105.813 122.5 96 122.5ZM69.7495 122.5H69.7251H60.4653L90.5425 79.5725C92.7515 82.3687 94.3857 85.5967 95.3271 89.0725C96.7505 94.3293 96.52 99.8972 94.6665 105.019C92.813 110.14 89.4268 114.565 84.9683 117.693C80.5098 120.821 75.1958 122.5 69.7495 122.5ZM112 69.75C112 66.9885 114.239 64.75 117 64.75H117.053C119.815 64.75 122.053 66.9885 122.053 69.75C122.053 72.5115 119.815 74.75 117.053 74.75H117C114.239 74.75 112 72.5115 112 69.75Z" fill="url(#paint0_linear_301_21)"/>
<defs>
<linearGradient id="paint0_linear_301_21" x1="0" y1="0" x2="192" y2="192" gradientUnits="userSpaceOnUse">
<stop stop-color="#EE0979"/>
<stop offset="1" stop-color="#FF6A00"/>
</linearGradient>
</defs>
</svg>
