<svg width="808" height="808" viewBox="0 0 808 808" fill="none" xmlns="http://www.w3.org/2000/svg">
<path d="M381.25 625.357C388.167 629.351 396.013 631.453 404 631.453C411.987 631.453 419.833 629.351 426.75 625.357L586 534.357C592.91 530.368 598.649 524.631 602.643 517.724C606.636 510.816 608.742 502.979 608.75 495V313C608.742 305.021 606.636 297.184 602.643 290.276C598.649 283.368 592.91 277.632 586 273.642L426.75 182.642C419.833 178.649 411.987 176.547 404 176.547C396.013 176.547 388.167 178.649 381.25 182.642L222 273.642C215.09 277.632 209.351 283.368 205.357 290.276C201.364 297.184 199.258 305.021 199.25 313V495C199.258 502.979 201.364 510.816 205.357 517.724C209.351 524.631 215.09 530.368 222 534.357L381.25 625.357Z" stroke="#999999" stroke-width="20" stroke-linecap="round" stroke-linejoin="round"/>
<path d="M404 631.5V404" stroke="#999999" stroke-width="20" stroke-linecap="round" stroke-linejoin="round"/>
<path d="M205.848 290.25L404 404L602.153 290.25" stroke="#999999" stroke-width="20" stroke-linecap="round" stroke-linejoin="round"/>
<path d="M301.625 228.143L506.375 345.305" stroke="#999999" stroke-width="20" stroke-linecap="round" stroke-linejoin="round"/>
</svg>
