<svg width="120" height="32" viewBox="0 0 120 32" fill="none" xmlns="http://www.w3.org/2000/svg">
<path d="M26.5 5.00164V29.0016C26.5 29.2669 26.3947 29.5212 26.2071 29.7088C26.0196 29.8963 25.7652 30.0016 25.5 30.0016C25.2348 30.0016 24.9804 29.8963 24.7929 29.7088C24.6054 29.5212 24.5 29.2669 24.5 29.0016V22.0016H18.5C18.3585 22.0002 18.2188 21.9695 18.0897 21.9114C17.9606 21.8533 17.8449 21.7691 17.75 21.6641C17.657 21.5593 17.5867 21.4363 17.5437 21.3029C17.5006 21.1695 17.4858 21.0286 17.5 20.8891C17.8098 18.3856 18.3028 15.9081 18.975 13.4766C20.475 8.17665 22.5625 5.00164 25.1625 4.06414C25.3131 4.00704 25.4754 3.98764 25.6352 4.00764C25.795 4.02764 25.9475 4.08642 26.0794 4.17886C26.2113 4.27131 26.3186 4.39461 26.3919 4.53802C26.4652 4.68143 26.5023 4.8406 26.5 5.00164V5.00164ZM15.9875 10.8391L14.9875 4.83914C14.9662 4.70946 14.9195 4.58526 14.8502 4.47361C14.7808 4.36197 14.6902 4.26508 14.5834 4.18847C14.4766 4.11186 14.3558 4.05704 14.2278 4.02713C14.0998 3.99722 13.9672 3.99281 13.8375 4.01414C13.5756 4.05724 13.3416 4.20261 13.1868 4.41828C13.0321 4.63395 12.9694 4.90224 13.0125 5.16414L13.825 10.0016H11.5V5.00164C11.5 4.73643 11.3947 4.48207 11.2071 4.29454C11.0196 4.107 10.7652 4.00164 10.5 4.00164C10.2348 4.00164 9.98044 4.107 9.7929 4.29454C9.60536 4.48207 9.50001 4.73643 9.50001 5.00164V10.0016H7.17501L7.98751 5.16414C8.00885 5.03446 8.00444 4.90185 7.97452 4.77388C7.94461 4.6459 7.88979 4.52507 7.81318 4.41828C7.73657 4.31149 7.63968 4.22084 7.52804 4.1515C7.41639 4.08216 7.29219 4.03548 7.16251 4.01414C7.03283 3.99281 6.90021 3.99722 6.77224 4.02713C6.64426 4.05704 6.52343 4.11186 6.41664 4.18847C6.30986 4.26508 6.2192 4.36197 6.14986 4.47361C6.08052 4.58526 6.03385 4.70946 6.01251 4.83914L5.01251 10.8391C5.00112 10.8925 4.99692 10.9472 5.00001 11.0016C5.00146 12.2869 5.45198 13.5313 6.27367 14.5196C7.09537 15.5079 8.23659 16.1781 9.50001 16.4141V29.0016C9.50001 29.2669 9.60536 29.5212 9.7929 29.7088C9.98044 29.8963 10.2348 30.0016 10.5 30.0016C10.7652 30.0016 11.0196 29.8963 11.2071 29.7088C11.3947 29.5212 11.5 29.2669 11.5 29.0016V16.4141C12.7634 16.1781 13.9046 15.5079 14.7263 14.5196C15.548 13.5313 15.9986 12.2869 16 11.0016C16.002 10.9513 15.9978 10.9009 15.9875 10.8516V10.8391Z" fill="#D73035"/>
<path d="M57.3182 17.2727C57.3182 19.1534 56.9659 20.7642 56.2614 22.1051C55.5625 23.4403 54.608 24.4631 53.3977 25.1733C52.1932 25.8835 50.8267 26.2386 49.2983 26.2386C47.7699 26.2386 46.4006 25.8835 45.1903 25.1733C43.9858 24.4574 43.0313 23.4318 42.3267 22.0966C41.6278 20.7557 41.2784 19.1477 41.2784 17.2727C41.2784 15.3921 41.6278 13.7841 42.3267 12.4489C43.0313 11.108 43.9858 10.0824 45.1903 9.37216C46.4006 8.66194 47.7699 8.30682 49.2983 8.30682C50.8267 8.30682 52.1932 8.66194 53.3977 9.37216C54.608 10.0824 55.5625 11.108 56.2614 12.4489C56.9659 13.7841 57.3182 15.3921 57.3182 17.2727ZM54.1392 17.2727C54.1392 15.9489 53.9318 14.8324 53.517 13.9233C53.108 13.0085 52.5398 12.3182 51.8125 11.8523C51.0852 11.3807 50.2472 11.1449 49.2983 11.1449C48.3494 11.1449 47.5114 11.3807 46.7841 11.8523C46.0568 12.3182 45.4858 13.0085 45.071 13.9233C44.6619 14.8324 44.4574 15.9489 44.4574 17.2727C44.4574 18.5966 44.6619 19.7159 45.071 20.6307C45.4858 21.5398 46.0568 22.2301 46.7841 22.7017C47.5114 23.1676 48.3494 23.4006 49.2983 23.4006C50.2472 23.4006 51.0852 23.1676 51.8125 22.7017C52.5398 22.2301 53.108 21.5398 53.517 20.6307C53.9318 19.7159 54.1392 18.5966 54.1392 17.2727Z" fill="#111111"/>
<path d="M60.1712 26V12.9091H63.1626V15.0909H63.299C63.5376 14.3352 63.9467 13.7528 64.5263 13.3438C65.1115 12.929 65.7791 12.7216 66.5291 12.7216C66.6996 12.7216 66.8899 12.7301 67.1001 12.7472C67.3161 12.7585 67.495 12.7784 67.6371 12.8068V15.6449C67.5064 15.5994 67.299 15.5597 67.0149 15.5256C66.7365 15.4858 66.4666 15.4659 66.2053 15.4659C65.6428 15.4659 65.1371 15.5881 64.6882 15.8324C64.245 16.071 63.8956 16.4034 63.6399 16.8296C63.3842 17.2557 63.2564 17.7472 63.2564 18.304V26H60.1712Z" fill="#111111"/>
<path d="M74.0057 26.2301C72.9773 26.2301 72.0568 25.9659 71.2443 25.4375C70.4318 24.9091 69.7898 24.1421 69.3182 23.1364C68.8466 22.1307 68.6108 20.9091 68.6108 19.4716C68.6108 18.0171 68.8494 16.7898 69.3267 15.7898C69.8097 14.7841 70.4602 14.0256 71.2784 13.5142C72.0966 12.9972 73.0085 12.7386 74.0142 12.7386C74.7813 12.7386 75.4119 12.8693 75.9063 13.1307C76.4006 13.3864 76.7926 13.696 77.0824 14.0597C77.3722 14.4176 77.5966 14.7557 77.7557 15.0739H77.8835V8.54546H80.9773V26H77.9432V23.9375H77.7557C77.5966 24.2557 77.3665 24.5938 77.0653 24.9517C76.7642 25.304 76.3665 25.6051 75.8722 25.8551C75.3778 26.1051 74.7557 26.2301 74.0057 26.2301ZM74.8665 23.6989C75.5199 23.6989 76.0767 23.5227 76.5369 23.1705C76.9972 22.8125 77.3466 22.3153 77.5852 21.679C77.8239 21.0426 77.9432 20.3011 77.9432 19.4546C77.9432 18.608 77.8239 17.8722 77.5852 17.2472C77.3523 16.6222 77.0057 16.1364 76.5455 15.7898C76.0909 15.4432 75.5313 15.2699 74.8665 15.2699C74.179 15.2699 73.6051 15.4489 73.1449 15.8068C72.6847 16.1648 72.3381 16.6591 72.1051 17.2898C71.8722 17.9205 71.7557 18.6421 71.7557 19.4546C71.7557 20.2727 71.8722 21.0028 72.1051 21.6449C72.3438 22.2813 72.6932 22.7841 73.1534 23.1534C73.6193 23.5171 74.1903 23.6989 74.8665 23.6989Z" fill="#111111"/>
<path d="M90.0604 26.2557C88.7479 26.2557 87.6144 25.983 86.6598 25.4375C85.7109 24.8864 84.9808 24.108 84.4695 23.1023C83.9581 22.0909 83.7024 20.9006 83.7024 19.5313C83.7024 18.1847 83.9581 17.0028 84.4695 15.9858C84.9865 14.9631 85.7081 14.1676 86.6342 13.5994C87.5604 13.0256 88.6484 12.7386 89.8984 12.7386C90.7053 12.7386 91.4666 12.8693 92.1825 13.1307C92.9041 13.3864 93.5405 13.7841 94.0916 14.3239C94.6484 14.8636 95.0859 15.5511 95.4041 16.3864C95.7223 17.2159 95.8814 18.2046 95.8814 19.3523V20.2983H85.1513V18.2188H92.924C92.9183 17.6278 92.7905 17.1023 92.5405 16.6421C92.2905 16.1761 91.9411 15.8097 91.4922 15.5426C91.049 15.2756 90.532 15.1421 89.9411 15.1421C89.3104 15.1421 88.7564 15.2955 88.2791 15.6023C87.8019 15.9034 87.4297 16.3011 87.1626 16.7955C86.9013 17.2841 86.7678 17.821 86.7621 18.4063V20.2216C86.7621 20.983 86.9013 21.6364 87.1797 22.1818C87.4581 22.7216 87.8473 23.1364 88.3473 23.4261C88.8473 23.7102 89.4325 23.8523 90.103 23.8523C90.5518 23.8523 90.9581 23.7898 91.3217 23.6648C91.6854 23.5341 92.0007 23.3438 92.2678 23.0938C92.5348 22.8438 92.7365 22.5341 92.8729 22.1648L95.7536 22.4886C95.5717 23.25 95.2251 23.9148 94.7138 24.483C94.2081 25.0455 93.5604 25.483 92.7706 25.7955C91.9808 26.1023 91.0774 26.2557 90.0604 26.2557Z" fill="#111111"/>
<path d="M98.4915 26V12.9091H101.483V15.0909H101.619C101.858 14.3352 102.267 13.7528 102.847 13.3438C103.432 12.929 104.099 12.7216 104.849 12.7216C105.02 12.7216 105.21 12.7301 105.42 12.7472C105.636 12.7585 105.815 12.7784 105.957 12.8068V15.6449C105.827 15.5994 105.619 15.5597 105.335 15.5256C105.057 15.4858 104.787 15.4659 104.526 15.4659C103.963 15.4659 103.457 15.5881 103.009 15.8324C102.565 16.071 102.216 16.4034 101.96 16.8296C101.705 17.2557 101.577 17.7472 101.577 18.304V26H98.4915Z" fill="#111111"/>
<path d="M118.354 16.3693L115.541 16.6761C115.462 16.3921 115.322 16.125 115.124 15.875C114.93 15.625 114.669 15.4233 114.339 15.2699C114.01 15.1165 113.607 15.0398 113.129 15.0398C112.487 15.0398 111.947 15.179 111.51 15.4574C111.078 15.7358 110.865 16.0966 110.871 16.5398C110.865 16.9205 111.004 17.2301 111.288 17.4688C111.578 17.7074 112.055 17.9034 112.72 18.0568L114.953 18.5341C116.192 18.8011 117.112 19.2244 117.714 19.804C118.322 20.3835 118.629 21.1421 118.635 22.0796C118.629 22.9034 118.388 23.6307 117.911 24.2614C117.439 24.8864 116.783 25.375 115.942 25.7273C115.101 26.0796 114.135 26.2557 113.044 26.2557C111.442 26.2557 110.152 25.9205 109.175 25.25C108.197 24.5739 107.615 23.6335 107.428 22.429L110.436 22.1392C110.572 22.7301 110.862 23.1761 111.305 23.4773C111.749 23.7784 112.325 23.929 113.036 23.929C113.768 23.929 114.357 23.7784 114.8 23.4773C115.249 23.1761 115.473 22.804 115.473 22.3608C115.473 21.9858 115.328 21.6761 115.038 21.4318C114.754 21.1875 114.311 21 113.709 20.8693L111.476 20.4006C110.22 20.1392 109.291 19.6989 108.689 19.0796C108.087 18.4546 107.788 17.6648 107.794 16.7102C107.788 15.9034 108.007 15.2046 108.45 14.6136C108.899 14.0171 109.521 13.5568 110.317 13.233C111.118 12.9034 112.041 12.7386 113.087 12.7386C114.621 12.7386 115.828 13.0653 116.709 13.7188C117.595 14.3722 118.143 15.2557 118.354 16.3693Z" fill="#111111"/>
</svg>
