<svg width="1920" height="1080" viewBox="0 0 1920 1080" fill="none" xmlns="http://www.w3.org/2000/svg">
<g clip-path="url(#clip0_25_5)">
<path fill-rule="evenodd" clip-rule="evenodd" d="M1271.05 0L924.027 0L959.334 211.847V212.512C959.884 215.137 960.107 217.82 960 220.5C959.923 288.941 935.933 355.204 892.177 407.832C848.422 460.46 787.652 496.145 720.375 508.716V1080H1412.62V806.25H1093.12C1085.59 806.174 1078.15 804.538 1071.27 801.445C1064.4 798.352 1058.24 793.869 1053.19 788.278C1048.23 782.695 1044.49 776.145 1042.2 769.041C1039.91 761.937 1039.12 754.435 1039.88 747.009C1056.37 613.694 1082.62 481.769 1118.42 352.294C1160.72 202.829 1211.8 85.1011 1271.05 0ZM1519.12 1080H1920V0H1519.12V1080ZM613.875 1080V508.716C546.598 496.145 485.828 460.46 442.073 407.832C398.317 355.204 374.327 288.941 374.25 220.5C374.085 217.599 374.309 214.689 374.916 211.847L410.223 0H0V1080H613.875ZM518.16 0L490.069 167.25H613.875V0H518.16ZM720.375 0V167.25H844.181L816.09 0H720.375Z" fill="#D73035"/>
</g>
<defs>
<clipPath id="clip0_25_5">
<rect width="1920" height="1080" fill="white"/>
</clipPath>
</defs>
</svg>
